# xmcd CD database file generated by Grip 2.95
# 
# Track frame offsets:
#       150
#       21037
#       42354
#       53495
#       63107
#       86660
#       110754
#       141211
#       170930
#       189110
#       210752
#       222741
#       246874
#       263967
#       283210
#       304437
# 
# Disc length: 4345 seconds
# 
# Revision: 3
# Processed by: cddbd v1.4PL0 Copyright (c) Steve Scherf et al.
# Submitted via: Grip 2.95
# 
DISCID=f110f710
DTITLE=Blue Band - Dealer's Choice-Blue Band's Best Vol. 1
DYEAR=1900
DGENRE=
TTITLE0=Madness on Main St.
TTITLE1=Walk Too Fast
TTITLE2=Patty C.
TTITLE3=Cincinatti Fireball
TTITLE4=Trouble Double
TTITLE5=Something for Nothing
TTITLE6=Son of Groove Cat
TTITLE7=Walk Right In
TTITLE8=Danger
TTITLE9=Too Many Cold Nights
TTITLE10=Elvis in Paraguay
TTITLE11=The Last Goodbye
TTITLE12=Don't Believe Her
TTITLE13=Lonesome
TTITLE14=Some Kind Woman
TTITLE15=Wayfaring Stranger
EXTD=
EXTT0=
EXTT1=
EXTT2=
EXTT3=
EXTT4=
EXTT5=
EXTT6=
EXTT7=
EXTT8=
EXTT9=
EXTT10=
EXTT11=
EXTT12=
EXTT13=
EXTT14=
EXTT15=
PLAYORDER=
